<mxfile host="app.diagrams.net" modified="2022-01-04T05:09:30.636Z" agent="5.0 (Windows NT 10.0; Win64; x64) AppleWebKit/537.36 (KHTML, like Gecko) Chrome/96.0.4664.110 Safari/537.36 Edg/96.0.1054.62" etag="_0mWBQgcjsQx44L0vypp" version="16.1.2" type="github">
  <diagram id="62DpDufi0AiV2cNl2U4P" name="Page-1">
    <mxGraphModel dx="1422" dy="794" grid="1" gridSize="10" guides="1" tooltips="1" connect="1" arrows="1" fold="1" page="1" pageScale="1" pageWidth="850" pageHeight="1100" math="0" shadow="0">
      <root>
        <mxCell id="0" />
        <mxCell id="1" parent="0" />
        <mxCell id="4awNCWXmjsOxldeB0e2U-2" value="Company" style="swimlane;fontStyle=1;align=center;verticalAlign=top;childLayout=stackLayout;horizontal=1;startSize=26;horizontalStack=0;resizeParent=1;resizeParentMax=0;resizeLast=0;collapsible=1;marginBottom=0;" parent="1" vertex="1">
          <mxGeometry x="310" y="41" width="220" height="80" as="geometry" />
        </mxCell>
        <mxCell id="4awNCWXmjsOxldeB0e2U-3" value="- companyDetails:CompanyDetails&#xa;&#xa;" style="text;strokeColor=none;fillColor=none;align=left;verticalAlign=top;spacingLeft=4;spacingRight=4;overflow=hidden;rotatable=0;points=[[0,0.5],[1,0.5]];portConstraint=eastwest;" parent="4awNCWXmjsOxldeB0e2U-2" vertex="1">
          <mxGeometry y="26" width="220" height="54" as="geometry" />
        </mxCell>
        <mxCell id="4awNCWXmjsOxldeB0e2U-6" value="" style="endArrow=open;html=1;endSize=12;startArrow=diamondThin;startSize=14;startFill=1;edgeStyle=orthogonalEdgeStyle;align=left;verticalAlign=bottom;rounded=0;" parent="1" edge="1">
          <mxGeometry x="-1" y="3" relative="1" as="geometry">
            <mxPoint x="310" y="84" as="sourcePoint" />
            <mxPoint x="231" y="220" as="targetPoint" />
          </mxGeometry>
        </mxCell>
        <mxCell id="4awNCWXmjsOxldeB0e2U-7" value="*" style="text;html=1;align=center;verticalAlign=middle;resizable=0;points=[];autosize=1;strokeColor=none;fillColor=none;" parent="1" vertex="1">
          <mxGeometry x="210" y="190" width="20" height="20" as="geometry" />
        </mxCell>
        <mxCell id="4awNCWXmjsOxldeB0e2U-9" value="&amp;lt;&amp;lt;has&amp;gt;&amp;gt;" style="text;html=1;align=center;verticalAlign=middle;resizable=0;points=[];autosize=1;strokeColor=none;fillColor=none;rotation=270;" parent="1" vertex="1">
          <mxGeometry x="190" y="130" width="60" height="20" as="geometry" />
        </mxCell>
        <mxCell id="4awNCWXmjsOxldeB0e2U-10" value="Department" style="swimlane;fontStyle=0;childLayout=stackLayout;horizontal=1;startSize=26;fillColor=none;horizontalStack=0;resizeParent=1;resizeParentMax=0;resizeLast=0;collapsible=1;marginBottom=0;" parent="1" vertex="1">
          <mxGeometry x="118" y="220" width="240" height="60" as="geometry" />
        </mxCell>
        <mxCell id="4awNCWXmjsOxldeB0e2U-11" value="-departmentDetails:DepartmentDetails" style="text;strokeColor=none;fillColor=none;align=left;verticalAlign=top;spacingLeft=4;spacingRight=4;overflow=hidden;rotatable=0;points=[[0,0.5],[1,0.5]];portConstraint=eastwest;" parent="4awNCWXmjsOxldeB0e2U-10" vertex="1">
          <mxGeometry y="26" width="240" height="34" as="geometry" />
        </mxCell>
        <mxCell id="4awNCWXmjsOxldeB0e2U-16" value="" style="endArrow=open;html=1;endSize=12;startArrow=diamondThin;startSize=14;startFill=0;edgeStyle=orthogonalEdgeStyle;rounded=0;" parent="1" edge="1">
          <mxGeometry y="22" relative="1" as="geometry">
            <mxPoint x="234" y="280" as="sourcePoint" />
            <mxPoint x="234" y="520" as="targetPoint" />
            <Array as="points">
              <mxPoint x="234" y="410" />
              <mxPoint x="234" y="410" />
            </Array>
            <mxPoint as="offset" />
          </mxGeometry>
        </mxCell>
        <mxCell id="4awNCWXmjsOxldeB0e2U-17" value="1" style="edgeLabel;resizable=0;html=1;align=left;verticalAlign=top;" parent="4awNCWXmjsOxldeB0e2U-16" connectable="0" vertex="1">
          <mxGeometry x="-1" relative="1" as="geometry">
            <mxPoint x="-42" as="offset" />
          </mxGeometry>
        </mxCell>
        <mxCell id="4awNCWXmjsOxldeB0e2U-18" value="0..*" style="edgeLabel;resizable=0;html=1;align=right;verticalAlign=top;" parent="4awNCWXmjsOxldeB0e2U-16" connectable="0" vertex="1">
          <mxGeometry x="1" relative="1" as="geometry">
            <mxPoint x="-1" y="-20" as="offset" />
          </mxGeometry>
        </mxCell>
        <mxCell id="4awNCWXmjsOxldeB0e2U-19" value="&amp;lt;&amp;lt;has&amp;gt;&amp;gt;" style="text;html=1;align=center;verticalAlign=middle;resizable=0;points=[];autosize=1;strokeColor=none;fillColor=none;rotation=270;" parent="1" vertex="1">
          <mxGeometry x="196" y="400" width="60" height="20" as="geometry" />
        </mxCell>
        <mxCell id="4awNCWXmjsOxldeB0e2U-20" value="&lt;&lt;Entity&gt;&gt;&#xa;Employee" style="swimlane;fontStyle=0;childLayout=stackLayout;horizontal=1;startSize=26;fillColor=none;horizontalStack=0;resizeParent=1;resizeParentMax=0;resizeLast=0;collapsible=1;marginBottom=0;" parent="1" vertex="1">
          <mxGeometry x="121" y="520" width="250" height="130" as="geometry" />
        </mxCell>
        <mxCell id="4awNCWXmjsOxldeB0e2U-21" value="- employeeDetails:EmployeeDetails" style="text;strokeColor=none;fillColor=none;align=left;verticalAlign=top;spacingLeft=4;spacingRight=4;overflow=hidden;rotatable=0;points=[[0,0.5],[1,0.5]];portConstraint=eastwest;" parent="4awNCWXmjsOxldeB0e2U-20" vertex="1">
          <mxGeometry y="26" width="250" height="54" as="geometry" />
        </mxCell>
        <mxCell id="GT0aHtH8q_KS2yNtfh6Y-10" value="&lt;span style=&quot;text-align: left&quot;&gt;# getEmployeeDetails():EmployeeDetails&lt;/span&gt;" style="html=1;" vertex="1" parent="4awNCWXmjsOxldeB0e2U-20">
          <mxGeometry y="80" width="250" height="50" as="geometry" />
        </mxCell>
        <mxCell id="GT0aHtH8q_KS2yNtfh6Y-1" value="&lt;p style=&quot;margin: 0px ; margin-top: 4px ; text-align: center&quot;&gt;&lt;i&gt;&amp;lt;&amp;lt;Interface&amp;gt;&amp;gt;&lt;/i&gt;&lt;br&gt;&lt;b&gt;CompanyDetails&lt;/b&gt;&lt;/p&gt;&lt;hr size=&quot;1&quot;&gt;&lt;p style=&quot;margin: 0px ; margin-left: 4px&quot;&gt;+ name:String&lt;br style=&quot;padding: 0px ; margin: 0px&quot;&gt;&lt;br style=&quot;padding: 0px ; margin: 0px&quot;&gt;# registrationNumber:Number&lt;br style=&quot;padding: 0px ; margin: 0px&quot;&gt;&lt;br style=&quot;padding: 0px ; margin: 0px&quot;&gt;+ foundingDate:Date&lt;br&gt;&lt;/p&gt;&lt;hr size=&quot;1&quot;&gt;&lt;p style=&quot;margin: 0px ; margin-left: 4px&quot;&gt;+ getCompanyName():String&lt;/p&gt;&lt;p style=&quot;margin: 0px ; margin-left: 4px&quot;&gt;+ getCompanyFoundingDate():String&lt;/p&gt;&lt;p style=&quot;margin: 0px ; margin-left: 4px&quot;&gt;&lt;br&gt;&lt;/p&gt;" style="verticalAlign=top;align=left;overflow=fill;fontSize=12;fontFamily=Helvetica;html=1;" vertex="1" parent="1">
          <mxGeometry x="820" y="41" width="220" height="189" as="geometry" />
        </mxCell>
        <mxCell id="GT0aHtH8q_KS2yNtfh6Y-4" value="Extends" style="endArrow=block;endSize=16;endFill=0;html=1;rounded=0;exitX=1;exitY=0.5;exitDx=0;exitDy=0;" edge="1" parent="1" source="4awNCWXmjsOxldeB0e2U-3">
          <mxGeometry width="160" relative="1" as="geometry">
            <mxPoint x="660" y="110" as="sourcePoint" />
            <mxPoint x="820" y="110" as="targetPoint" />
          </mxGeometry>
        </mxCell>
        <mxCell id="GT0aHtH8q_KS2yNtfh6Y-5" value="Extends" style="endArrow=block;endSize=16;endFill=0;html=1;rounded=0;" edge="1" parent="1" target="GT0aHtH8q_KS2yNtfh6Y-6">
          <mxGeometry width="160" relative="1" as="geometry">
            <mxPoint x="360" y="260" as="sourcePoint" />
            <mxPoint x="800" y="300" as="targetPoint" />
          </mxGeometry>
        </mxCell>
        <mxCell id="GT0aHtH8q_KS2yNtfh6Y-6" value="&lt;p style=&quot;margin: 0px ; margin-top: 4px ; text-align: center&quot;&gt;&lt;i&gt;&amp;lt;&amp;lt;Interface&amp;gt;&amp;gt;&lt;/i&gt;&lt;br&gt;&lt;b&gt;DepartmentDetails&lt;/b&gt;&lt;/p&gt;&lt;hr size=&quot;1&quot;&gt;&amp;nbsp;+ name: String&lt;p style=&quot;margin: 0px ; margin-left: 4px&quot;&gt;- code: Number&lt;br&gt;&lt;/p&gt;&lt;hr size=&quot;1&quot;&gt;&lt;p style=&quot;margin: 0px ; margin-left: 4px&quot;&gt;+ getDepartmentName():String&lt;br&gt;&amp;nbsp;&lt;/p&gt;" style="verticalAlign=top;align=left;overflow=fill;fontSize=12;fontFamily=Helvetica;html=1;" vertex="1" parent="1">
          <mxGeometry x="820" y="270" width="220" height="110" as="geometry" />
        </mxCell>
        <mxCell id="GT0aHtH8q_KS2yNtfh6Y-7" value="&lt;p style=&quot;margin: 0px ; margin-top: 4px ; text-align: center&quot;&gt;&lt;i&gt;&amp;lt;&amp;lt;Interface&amp;gt;&amp;gt;&lt;/i&gt;&lt;br&gt;&lt;b&gt;EmployeeDetails&lt;/b&gt;&lt;/p&gt;&lt;hr size=&quot;1&quot;&gt;&lt;p style=&quot;margin: 0px ; margin-left: 4px&quot;&gt;+ name: String&lt;br&gt;+ designation: Designation&lt;br&gt;&lt;/p&gt;&lt;p style=&quot;margin: 0px ; margin-left: 4px&quot;&gt;- joiningDate: Date&lt;/p&gt;&lt;div style=&quot;padding: 0px ; margin: 0px&quot;&gt;&amp;nbsp; - code: Number&lt;br style=&quot;padding: 0px ; margin: 0px&quot;&gt;&lt;/div&gt;&lt;hr size=&quot;1&quot;&gt;&lt;p style=&quot;margin: 0px ; margin-left: 4px&quot;&gt;&lt;br&gt;&lt;/p&gt;" style="verticalAlign=top;align=left;overflow=fill;fontSize=12;fontFamily=Helvetica;html=1;" vertex="1" parent="1">
          <mxGeometry x="810" y="460" width="240" height="110" as="geometry" />
        </mxCell>
        <mxCell id="GT0aHtH8q_KS2yNtfh6Y-8" value="Extends" style="endArrow=block;endSize=16;endFill=0;html=1;rounded=0;entryX=0.004;entryY=0.7;entryDx=0;entryDy=0;entryPerimeter=0;exitX=1.008;exitY=0.296;exitDx=0;exitDy=0;exitPerimeter=0;" edge="1" parent="1" source="4awNCWXmjsOxldeB0e2U-21" target="GT0aHtH8q_KS2yNtfh6Y-7">
          <mxGeometry width="160" relative="1" as="geometry">
            <mxPoint x="361" y="550" as="sourcePoint" />
            <mxPoint x="521" y="550" as="targetPoint" />
          </mxGeometry>
        </mxCell>
      </root>
    </mxGraphModel>
  </diagram>
</mxfile>
